<?xml version="1.0" encoding="UTF-8"?>
<svg width="311px" height="97px" viewBox="0 0 311 97" version="1.1" xmlns="http://www.w3.org/2000/svg" xmlns:xlink="http://www.w3.org/1999/xlink">
    <!-- Generator: Sketch 51.1 (57501) - http://www.bohemiancoding.com/sketch -->
    <title>BP Color Logo Black</title>
    <desc>Created with Sketch.</desc>
    <defs></defs>
    <g id="Symbols" stroke="none" stroke-width="1" fill="none" fill-rule="evenodd">
        <g id="D_Footer" transform="translate(-485.000000, -182.000000)">
            <g id="BP-Color-Logo-Black" transform="translate(484.000000, 182.000000)">
                <g id="BP-Color-Logo">
                    <path d="M193.3997,81.5467 C193.5127,81.5247 193.9237,81.4557 194.0147,81.4557 C194.2427,81.4557 194.6297,81.5697 194.9037,81.6607 L195.4057,81.8427 C195.5877,81.9347 195.9067,82.2987 196.2257,82.5497 L196.5227,82.9607 C196.5227,83.0747 196.6817,83.2567 196.7277,83.2567 C196.7737,83.2337 196.9787,83.0967 197.0237,83.0517 L197.8217,82.4587 C197.8897,82.3907 197.9357,82.3677 197.9357,82.2077 C197.9357,82.0487 197.9137,82.0257 197.8217,81.8427 L197.6167,81.5467 C197.5037,81.4327 196.9557,80.8627 196.8187,80.7487 L196.4087,80.4527 L196.0207,80.2477 L195.5197,80.0427 C195.2917,79.9737 194.9267,79.8377 194.6987,79.8377 L193.3077,79.8377 C193.2857,79.8377 192.9887,79.9057 192.8977,79.9507 L192.3047,80.1567 C191.5297,80.4297 191.0967,80.8397 190.8917,81.1597 L190.3897,81.9577 C190.0707,82.2757 189.8887,83.3247 189.8887,83.9637 L189.8887,84.3737 C189.8887,84.4197 189.9577,84.7607 189.9797,84.8757 L190.1847,85.5587 L190.6867,86.5627 C190.7777,86.7217 191.2797,87.3597 191.3927,87.4737 C192.6707,88.4997 194.8807,90.4607 195.0177,90.5967 L195.5197,91.1897 C195.6787,91.6687 195.8377,91.3947 195.8377,92.3987 C195.8377,92.9677 195.7937,92.9447 195.5197,93.4927 L195.3147,93.8117 C195.2917,93.8117 195.0867,93.9707 195.0177,93.9937 L194.8127,94.1077 C194.7447,94.1307 194.5397,94.1987 194.5167,94.1987 L193.9007,94.3127 L193.6047,94.3127 L193.1027,94.1987 C193.0807,94.1987 192.9437,94.1307 192.8977,94.1077 L192.6017,93.9027 C192.5097,93.8117 192.0777,93.4007 192.0087,93.3097 L191.8947,93.1047 L191.6897,92.6037 C191.6897,92.5807 191.6217,92.5117 191.5987,92.4887 L191.4847,92.4887 L190.0937,93.1957 C190.0937,93.1957 190.0707,93.2647 190.0707,93.2877 C190.0707,93.3097 190.0937,93.4007 190.0937,93.4007 L190.3897,93.9937 C190.8007,94.8147 191.3017,95.3387 192.0997,95.7037 C192.2137,95.7717 192.5557,95.9087 192.6017,95.9087 L193.1947,96.0227 L194.5167,96.0227 C194.9497,96.0227 195.9067,95.6127 196.1127,95.4067 C196.6817,94.9967 197.2527,94.3127 197.4117,93.8117 L197.6167,93.1957 L197.7307,92.4887 L197.7307,91.8967 L197.6167,91.3037 C197.6167,91.2577 197.5477,91.0527 197.5257,90.9847 L197.2287,90.2777 C197.0017,90.0497 196.7277,89.5257 196.7277,89.4807 L195.7247,88.4767 L194.8127,87.7707 L193.3997,86.5627 C193.2857,86.4477 192.6467,85.8327 192.5097,85.6727 L192.0997,85.1717 C192.0777,85.1487 192.0087,85.0117 192.0087,84.9667 L191.8947,84.6707 C191.8037,84.2367 191.7807,84.2367 191.7807,83.7807 C191.7807,83.2117 191.7807,82.8687 192.6927,81.9577 L193.3997,81.5467 Z M182.1837,90.1867 L187.4047,90.1867 L187.4047,88.6367 C185.3977,88.6367 182.2977,88.5677 182.2977,88.4767 L182.1837,88.3857 C182.1837,88.2947 182.1617,86.8587 182.1617,86.3347 C182.1617,83.7807 182.1157,82.0487 182.2977,81.9577 L182.3887,81.8657 L187.3127,81.8657 L187.4047,81.7527 C187.4047,81.7297 187.4267,81.4327 187.4267,81.3187 C187.4267,80.7037 187.4047,80.4527 187.3127,80.0427 L180.2687,80.1567 C180.2687,82.9377 180.1777,85.7417 180.1777,88.5227 L180.1777,89.4807 C180.1777,90.4147 180.2687,94.7917 180.2687,95.7267 L187.6097,95.7267 L187.6097,94.1307 C185.6487,94.1307 183.8017,94.1307 182.1837,94.0167 L182.1837,90.1867 Z M171.0827,88.4767 L170.5807,88.4767 C170.5347,88.4767 170.4657,88.4087 170.4657,88.3627 L170.4657,81.7527 L171.7657,81.6377 C172.2667,81.6837 172.8147,81.7527 173.2697,81.9347 C173.9547,82.2077 174.9797,83.3017 174.9797,84.0547 C175.0037,84.1917 175.0937,84.7607 175.0937,84.8527 L175.0937,85.4677 L174.9797,86.0607 C174.9797,86.0837 174.8427,86.4477 174.7977,86.5627 L174.2957,87.3597 C173.7257,87.9297 172.8147,88.3627 172.2667,88.3627 L171.0827,88.4767 Z M177.3047,94.7917 L174.7977,91.9877 L173.0877,90.1867 C173.0877,90.1637 173.0647,90.1417 173.0647,90.1417 C173.0647,90.0957 173.1107,89.9817 173.1787,89.9817 L173.6807,89.7767 C173.8627,89.7087 174.3647,89.4807 174.3867,89.4807 L174.9797,89.0697 C175.0717,89.0247 175.4817,88.6597 175.5957,88.5677 C176.8037,87.4967 176.9407,86.5167 177.0997,84.5557 L177.0997,84.3507 L176.8947,83.5527 C176.5307,82.4817 176.0747,81.9117 175.2987,81.1367 L174.6837,80.6347 C174.3867,80.6347 173.1327,80.0427 172.5867,80.0427 L168.5507,80.0427 C168.4377,83.2567 168.4377,84.9667 168.4377,90.3467 C168.4377,91.3267 168.4607,94.1077 168.4607,94.2907 L168.5507,95.6127 C168.5507,95.5897 169.4627,95.7037 169.8737,95.7037 L170.2607,95.7037 C170.3297,95.7037 170.4657,95.6127 170.4657,95.6127 L170.4657,89.8677 C170.4897,89.9137 170.6487,90.0497 170.6707,90.0727 L171.9707,91.4857 C172.8827,92.3987 173.2477,93.1507 174.3867,94.2907 L174.5917,94.4957 C175.1627,95.2937 175.4817,95.6127 175.5957,95.6127 L177.8977,95.6127 L177.8977,95.4067 C177.8067,95.3167 177.3737,94.9057 177.3047,94.7917 Z M163.8097,89.8677 L163.8097,90.6887 L163.6957,91.3727 C163.5367,92.3757 163.0357,93.0137 162.3047,93.5837 C161.9407,93.9477 161.0967,94.1987 160.8007,94.1987 L159.3867,94.1987 C159.0687,94.0397 158.2027,93.8117 157.9737,93.5837 C157.7007,93.4007 157.0397,92.6267 156.9707,92.4887 L156.7657,91.9877 C156.5607,91.4857 156.4467,90.3917 156.4687,89.7767 L156.4687,80.1337 L154.5547,80.1337 L154.5547,89.9817 C154.5547,90.4837 154.6687,91.5777 154.7597,91.8737 L154.9647,92.5807 C155.2157,93.3557 155.7857,94.1987 156.5837,94.7917 L156.9707,95.0887 C157.2447,95.2707 157.5867,95.4987 157.8827,95.5897 L158.8857,95.9087 C159.0227,95.9317 159.5247,95.9997 159.5927,95.9997 L160.8007,95.9997 C160.8917,95.9997 161.3707,95.9317 161.4847,95.9087 L162.1917,95.7037 C162.4647,95.6347 162.7607,95.4757 163.1037,95.2937 C163.4677,95.0887 163.7187,94.9967 164.1067,94.5867 C164.1287,94.5867 164.1977,94.5187 164.1977,94.4957 L164.9047,93.5837 C165.4057,93.0817 165.4977,92.1017 165.6107,91.6917 C165.6337,91.4637 165.7027,90.8477 165.7027,90.7797 L165.7027,80.1337 L163.9017,80.1337 C163.8787,81.5927 163.8097,88.4087 163.8097,89.8677 Z M148.3087,79.9287 L144.7747,79.9287 C144.7747,79.9507 144.6837,80.0197 144.6837,80.0427 L144.6837,80.1337 C144.7067,80.3837 144.7747,81.5017 144.7747,81.7527 L147.3057,81.7527 L147.3967,81.8427 L147.3967,83.7577 C147.3967,86.9267 147.2827,88.9557 147.2827,92.8317 C147.2827,93.5377 147.2827,95.4067 147.3057,95.4987 L147.3967,95.6127 L149.1067,95.6127 L149.1977,95.2937 L149.1977,89.8677 C149.1977,87.4967 149.3117,81.8657 149.3117,81.8427 L149.4027,81.6837 L151.8197,81.6837 L151.8197,80.1337 L151.7057,80.0427 C151.7057,80.0197 149.3117,79.9507 148.3087,79.9287 Z M141.5147,93.0597 L141.4007,93.0597 C140.8997,93.2417 140.5347,93.5147 140.0107,93.6517 L139.2127,93.8577 C138.6197,93.9477 138.4607,93.9707 137.7537,93.9707 C137.0467,93.9707 136.8647,93.9257 136.0887,93.7657 L135.7927,93.6517 C135.6787,93.6297 135.2007,93.4007 135.0867,93.3557 L134.6757,93.1507 C133.8557,92.7397 133.2627,91.9877 132.4647,90.9397 L132.3737,90.7567 C131.9407,89.7537 131.7577,89.1157 131.7577,88.1347 C131.7577,87.4287 131.7807,87.3827 131.8717,86.7217 C131.9407,86.3117 132.0547,85.7647 132.2827,85.3317 C132.2827,85.0807 132.8527,84.3737 132.9657,84.1227 C133.6957,83.1887 134.7217,82.5957 134.9727,82.4137 L135.1777,82.2987 L136.3857,81.9117 C136.4767,81.8887 136.8417,81.7977 136.8867,81.7977 L138.8017,81.7977 L139.5997,82.0027 C140.1927,82.1627 140.7627,82.4357 141.3097,82.7097 C141.3327,82.7097 141.4007,82.6407 141.4007,82.6187 L142.0167,81.5017 C142.0847,81.3647 142.1307,81.2967 142.1307,81.1597 C142.1307,81.1137 142.1077,80.9997 142.1077,80.9997 L142.0167,80.9087 L141.8117,80.7947 L141.1047,80.4987 C139.4627,79.9507 139.3037,79.8827 137.9357,79.8827 C136.5457,79.8827 136.0207,80.1567 135.1777,80.2937 L134.0837,80.7037 L132.9657,81.4097 L132.5787,81.7067 C131.4617,82.6637 131.2107,83.0747 130.6637,84.0087 L130.2537,84.9207 C130.1627,85.3087 129.8887,85.9927 129.8657,86.0147 C129.8197,86.2427 129.6837,87.3147 129.6607,87.5427 L129.6607,87.9297 C129.7747,89.3437 129.7977,89.6857 130.0707,90.5517 C130.4357,91.7137 131.2787,93.0817 132.7837,94.3587 C132.7837,94.4037 133.7637,94.9737 134.0837,95.1567 L134.6757,95.4757 L135.5877,95.7717 C135.7927,95.8177 136.7737,95.9547 137.0017,95.9777 L138.5057,95.9777 L139.5997,95.8627 C139.8967,95.8627 140.5577,95.5667 140.6037,95.5667 C140.6257,95.5667 140.8767,95.4757 140.8997,95.4757 L142.2217,94.8597 C142.2677,94.8597 142.4037,94.7237 142.4037,94.6547 C142.4037,94.6547 142.2677,94.3587 142.2217,94.2677 L141.5147,93.0597 Z M125.1017,79.9737 L124.9877,80.0877 C124.9877,80.0877 124.9197,88.8647 124.8967,92.6267 L124.8967,95.5447 L124.9877,95.6577 C125.0107,95.6347 125.8537,95.7497 126.1957,95.7497 L126.6977,95.7497 C126.8797,95.7497 126.9027,93.2877 126.9027,92.7397 L126.9027,85.6047 C126.9027,84.7607 126.8347,80.8177 126.8117,79.9737 L125.1017,79.9737 Z M120.2457,85.6507 C120.2457,85.9467 120.0407,86.4707 119.9497,86.7677 L119.7447,87.0637 C119.6307,87.1777 119.1517,87.6787 119.0377,87.7707 L118.7417,87.9757 L118.3307,88.1807 C118.0347,88.3177 117.7157,88.3397 117.4197,88.3627 L116.2337,88.4767 L116.1197,88.3627 C116.0057,87.5197 116.0057,86.3117 116.0057,83.8947 C116.0057,83.3707 116.0057,81.9347 116.0287,81.8427 L116.1197,81.7527 C116.1427,81.7297 116.4167,81.7297 116.5297,81.7297 C117.0777,81.7297 117.3737,81.7527 117.9207,81.8427 C118.0117,81.8657 118.2857,81.9347 118.3307,81.9347 L119.2427,82.5497 C119.7677,83.0747 119.9957,83.4847 120.1317,84.0547 L120.2457,84.7607 L120.2457,85.6507 Z M121.4547,82.2537 L120.9527,81.5467 C120.9067,81.4787 120.6107,81.2047 120.5427,81.1367 L119.8357,80.6347 C119.7677,80.5897 119.2657,80.3837 119.1287,80.3387 L118.5367,80.1337 C118.3997,80.1107 117.9207,80.0427 117.8297,80.0427 L114.1137,80.0427 L114.1137,95.4987 L114.2047,95.6127 C114.2277,95.5897 115.0707,95.7037 115.4127,95.7037 L115.8237,95.7037 C115.8917,95.7037 116.0287,95.6127 116.0287,95.6127 L116.0287,90.1867 C117.5327,89.9587 118.8557,89.9587 119.0377,89.7767 C119.3347,89.7767 119.7897,89.4807 120.0407,89.2747 L120.9527,88.5677 L121.4547,87.8617 L121.7507,87.2687 L121.9557,86.7677 C122.1377,85.9927 122.1607,85.9237 122.1607,85.0117 C122.1607,83.8947 122.1607,83.9857 121.7507,82.7547 L121.4547,82.2537 Z" id="Pictures" fill="#000000"></path>
                    <path d="M166.4993,2.3011 C163.6913,1.1221 160.5133,1.0721 157.5263,1.3841 C154.5283,1.6971 151.5653,2.5121 148.9043,3.9441 C146.4543,5.2621 144.2183,7.0301 142.3893,9.1291 C140.6073,11.1751 139.2643,13.5331 137.7863,15.7951 C136.3563,17.9851 134.8773,20.1351 133.5573,22.3951 C132.4683,24.2571 131.3663,26.1131 130.2213,27.9401 C129.4573,29.1601 128.6603,30.4041 127.0653,30.4291 C126.3393,30.4421 125.5893,30.2711 124.9243,29.9821 L124.9873,30.0231 C124.9773,30.0381 121.7993,35.3361 121.7993,35.3361 C124.6093,37.8571 128.7773,39.8881 132.6273,39.5411 C136.7713,39.1681 140.2283,36.3691 142.9733,33.4481 C145.1073,31.1761 146.8403,28.6181 148.5573,26.0271 C150.1943,23.5551 151.9283,21.1461 153.4243,18.5831 C154.8453,16.1521 156.2413,13.6721 158.1323,11.5661 C159.3373,10.2241 161.1233,9.6151 162.8583,9.4481 C163.0523,9.4301 165.5243,9.5131 165.5493,9.4611 C165.5493,9.4601 168.3403,3.4191 168.3403,3.4191 C167.9413,3.0481 167.4763,2.7571 166.9863,2.5201 C166.8263,2.4431 166.6633,2.3701 166.4993,2.3011 Z M100.4123,40.0031 L115.4123,40.0031 L115.4123,1.8361 L100.4123,1.8361 L100.4123,40.0031 Z M31.4243,30.3921 C30.7273,31.0351 29.8913,31.2641 28.9723,31.3561 C28.9043,31.3621 28.8363,31.3681 28.7693,31.3731 C27.7963,31.4501 26.7993,31.3981 25.8243,31.3981 L15.9583,31.3981 L15.9583,25.0031 L28.0443,25.0031 C29.0423,25.0031 30.0163,25.0441 30.8893,25.5831 C31.6123,26.0301 32.1723,26.7411 32.3553,27.5781 C32.3993,27.7791 32.4213,27.9851 32.4213,28.1901 C32.4213,29.0311 32.0383,29.8251 31.4243,30.3921 Z M15.9583,10.5961 L16.0933,10.5961 L16.1333,10.5961 L16.2683,10.5961 L18.0113,10.5961 L24.1413,10.5961 C25.0083,10.5961 25.8533,10.6331 26.6123,11.1011 C27.2403,11.4881 27.7263,12.1061 27.8853,12.8331 C27.9233,13.0081 27.9423,13.1861 27.9423,13.3641 C27.9423,14.0951 27.6093,14.7841 27.0763,15.2771 C26.4703,15.8351 25.7453,16.0341 24.9463,16.1141 C24.8883,16.1191 24.8293,16.1241 24.7703,16.1291 C23.9253,16.1961 23.0603,16.1511 22.2133,16.1511 L18.5703,16.1511 L16.5043,16.1511 L15.9583,16.1511 L15.9583,10.5961 Z M37.1823,19.2081 C37.0073,19.1031 35.0013,17.9171 34.8333,18.1071 C36.2283,16.5371 37.3323,14.9841 37.4043,12.8251 C37.4803,10.5401 36.9173,8.2221 35.4853,6.4041 C32.8043,3.0011 28.6773,1.9191 24.5203,1.9191 L0.9993,1.9191 L0.9993,39.8361 L33.5833,39.8361 C35.8333,39.3151 40.7083,38.2321 42.1453,32.2941 C42.7193,29.9261 42.6113,27.4201 41.7283,25.1431 C40.8713,22.9331 39.2433,20.4531 37.1823,19.2081 Z M80.6673,14.1971 C79.9223,14.8841 79.0293,15.1291 78.0483,15.2261 C77.9763,15.2341 77.9033,15.2401 77.8313,15.2461 C76.7913,15.3281 75.7283,15.2721 74.6863,15.2721 L70.2043,15.2721 L67.6733,15.2721 L65.7713,15.2721 L65.7713,8.4401 L67.3833,8.4401 L69.5173,8.4401 L77.0573,8.4401 C78.1233,8.4401 79.1643,8.4841 80.0963,9.0601 C80.8693,9.5371 81.4673,10.2971 81.6633,11.1921 C81.7093,11.4061 81.7333,11.6251 81.7333,11.8451 C81.7333,12.7431 81.3233,13.5921 80.6673,14.1971 Z M86.8943,23.8361 C85.9163,22.9631 84.8733,22.1331 83.7703,21.4191 C92.2703,17.6691 90.0833,8.9191 90.0833,8.9191 C88.2083,1.7321 79.5833,0.9191 79.5833,0.9191 L50.5203,0.9191 L50.5203,39.8571 L65.8953,39.8571 L65.8953,22.8571 C65.8953,22.8571 81.5203,20.1071 84.7083,39.1071 L93.1453,39.6691 C93.3613,37.1051 92.9103,34.5131 92.0743,32.0911 C90.9683,28.8831 89.4293,26.1001 86.8943,23.8361 Z M284.1253,31.8361 L284.1253,0.8151 L268.8533,0.8151 L268.8533,39.8031 L311.9583,39.8031 L311.9583,31.8361 L284.1253,31.8361 Z M174.6663,9.4191 L186.8753,9.4191 L186.9163,34.6691 L201.5413,23.9191 L201.5413,9.1691 L213.2913,9.1691 L213.2913,1.3361 L174.6663,1.3571 L174.6663,9.4191 Z" id="Bristol" fill="#000000"></path>
                    <path d="M251.6253,20.3568 C251.6253,14.2468 246.6723,9.2938 240.5623,9.2938 C234.4533,9.2938 229.5003,14.2468 229.5003,20.3568 C229.5003,26.4658 234.4533,31.4198 240.5623,31.4198 C246.6723,31.4198 251.6253,26.4658 251.6253,20.3568 M246.5703,39.8098 L126.4483,80.0968 L125.1253,80.0448 L227.6393,4.6298 C231.1533,1.7378 235.6553,-0.0002 240.5623,-0.0002 C251.8063,-0.0002 260.9193,9.1138 260.9193,20.3568 C260.9193,29.5078 254.8803,37.2468 246.5703,39.8098" id="Spotlight-O" fill="#B69862"></path>
                </g>
            </g>
        </g>
    </g>
</svg>