<?xml version="1.0" encoding="UTF-8"?>
<svg width="86px" height="70px" viewBox="0 0 86 70" version="1.1" xmlns="http://www.w3.org/2000/svg" xmlns:xlink="http://www.w3.org/1999/xlink">
    <!-- Generator: Sketch 51.1 (57501) - http://www.bohemiancoding.com/sketch -->
    <title>Page 1</title>
    <desc>Created with Sketch.</desc>
    <defs></defs>
    <g id="PreProduction" stroke="none" stroke-width="1" fill="none" fill-rule="evenodd">
        <g id="D_PreProductionDetail" transform="translate(-969.000000, -1354.000000)" fill="#000000">
            <path d="M1054,1422.99461 L970,1422.99461 L970,1363.67649 L981.5,1363.67649 L981.5,1366.0643 L974,1366.0643 C973.724,1366.0643 973.5,1366.28951 973.5,1366.56699 L973.5,1418.84737 C973.5,1419.12486 973.724,1419.35006 974,1419.35006 L1050,1419.35006 C1050.276,1419.35006 1050.5,1419.12486 1050.5,1418.84737 L1050.5,1366.56699 C1050.5,1366.28951 1050.276,1366.0643 1050,1366.0643 L1026.5,1366.0643 L1026.5,1363.67649 L1054,1363.67649 L1054,1422.99461 Z M981.814,1407.24917 L1009.403,1418.34467 L974.5,1418.34467 L974.5,1367.06969 L981.5,1367.06969 L981.5,1406.78267 C981.5,1406.98877 981.624,1407.17276 981.814,1407.24917 Z M982.5,1355.24427 L1011.5,1366.90682 L1011.5,1418.10539 L982.5,1406.44284 L982.5,1355.24427 Z M1016.749,1406.84098 C1016.903,1406.93046 1017.094,1406.93146 1017.248,1406.84198 L1021.5,1404.39788 L1025.752,1406.84198 C1025.829,1406.88622 1025.914,1406.90834 1026,1406.90834 C1026.087,1406.90834 1026.174,1406.88622 1026.251,1406.84098 C1026.405,1406.75049 1026.5,1406.5846 1026.5,1406.40564 L1026.5,1367.06969 L1049.5,1367.06969 L1049.5,1418.34467 L1012.5,1418.34467 L1012.5,1367.06969 L1016.5,1367.06969 L1016.5,1406.40564 C1016.5,1406.5846 1016.595,1406.75049 1016.749,1406.84098 Z M1016.5,1363.67649 L1016.5,1366.0643 L1012.097,1366.0643 L1006.159,1363.67649 L1016.5,1363.67649 Z M1054.5,1362.6711 L1026.5,1362.6711 L1026.5,1361.16301 C1026.5,1360.88553 1026.276,1360.66032 1026,1360.66032 L1017,1360.66032 C1016.724,1360.66032 1016.5,1360.88553 1016.5,1361.16301 L1016.5,1362.6711 L1003.659,1362.6711 L982.186,1354.03579 C982.031,1353.97446 981.856,1353.99357 981.72,1354.08606 C981.582,1354.17956 981.5,1354.3354 981.5,1354.50229 L981.5,1362.6711 L969.5,1362.6711 C969.224,1362.6711 969,1362.89631 969,1363.1738 L969,1423.4973 C969,1423.77479 969.224,1424 969.5,1424 L1054.5,1424 C1054.776,1424 1055,1423.77479 1055,1423.4973 L1055,1363.1738 C1055,1362.89631 1054.776,1362.6711 1054.5,1362.6711 Z" id="Page-1"></path>
        </g>
    </g>
</svg>