<?xml version="1.0" encoding="UTF-8"?>
<svg width="74px" height="71px" viewBox="0 0 74 71" version="1.1" xmlns="http://www.w3.org/2000/svg" xmlns:xlink="http://www.w3.org/1999/xlink">
    <!-- Generator: Sketch 51.1 (57501) - http://www.bohemiancoding.com/sketch -->
    <title>Page 1</title>
    <desc>Created with Sketch.</desc>
    <defs>
        <polygon id="path-1" points="0 0 73.4997 0 73.4997 70.9996 0 70.9996"></polygon>
    </defs>
    <g id="PreProduction" stroke="none" stroke-width="1" fill="none" fill-rule="evenodd">
        <g id="D_PreProductionDetail" transform="translate(-979.000000, -1175.000000)">
            <g id="Page-1" transform="translate(979.000000, 1175.000000)">
                <mask id="mask-2" fill="white">
                    <use xlink:href="#path-1"></use>
                </mask>
                <g id="Clip-2"></g>
                <path d="M39.0967,30.8276 C39.0747,31.0276 39.0457,31.2276 39.0067,31.4296 C38.9847,31.5406 38.9597,31.6506 38.9327,31.7586 C38.9257,31.7896 38.9207,31.8076 38.9207,31.8076 L38.9197,31.8066 C38.7037,32.6506 38.3357,33.4136 37.8617,34.0246 C36.6267,35.4266 35.0717,35.5416 33.9027,35.3526 C33.1357,35.1796 32.5197,34.8496 32.2267,34.6716 C32.8747,31.7936 33.2917,28.8796 33.6247,25.9926 C33.6247,25.9926 34.8727,25.3726 35.9837,25.5016 C36.8777,25.6176 37.6647,26.2866 37.6647,26.2866 C38.5107,27.0376 38.8207,27.8226 38.8207,27.8226 C39.2507,28.7406 39.2047,29.9766 39.0967,30.8276 Z M34.0527,22.0216 C34.1607,20.9776 34.2737,19.8966 34.3917,18.8386 C34.5337,17.5686 34.8207,16.5076 35.2207,15.7726 C35.7717,14.7616 36.3807,14.6436 36.8507,14.6536 L36.8717,14.6546 C37.8157,14.6836 38.3627,16.0016 38.4987,16.8806 C38.6187,17.6496 38.5407,18.5546 38.3017,19.3946 L38.3027,19.3936 C38.1857,19.9466 37.9337,20.5016 37.6867,20.9526 C36.9857,22.4256 35.6777,23.3416 35.6777,23.3416 C35.3257,23.6206 35.0347,23.8276 34.8117,23.9776 C34.4997,24.1996 34.0677,24.4386 33.7827,24.5886 C33.8757,23.7296 33.9647,22.8726 34.0527,22.0216 Z M40.0237,27.3906 C39.3417,25.8736 38.0097,24.8196 36.3967,24.4646 C36.6337,24.2766 36.9407,24.0216 37.2427,23.7406 C37.2427,23.7386 37.2437,23.7376 37.2457,23.7366 C37.3147,23.6726 37.3827,23.6066 37.4507,23.5396 C37.9567,23.0716 38.5537,22.3726 39.0997,21.3566 C39.8007,20.0496 40.1397,18.3236 39.9047,16.8376 C39.6577,15.2826 38.6627,13.4926 36.9107,13.4376 C36.9007,13.4376 36.8887,13.4376 36.8767,13.4376 C34.0757,13.3766 33.2227,16.6076 32.9717,18.8326 C32.3197,24.6236 31.9217,30.4446 30.3777,36.0916 C29.9557,37.6356 29.5357,39.2336 28.8627,40.7086 C28.3197,41.8976 27.5547,43.4786 26.1527,43.8036 C25.5037,43.9536 24.7927,43.8276 24.3037,43.3606 C23.3407,42.4426 24.2517,41.5696 24.4047,40.5536 C24.4337,40.3586 24.4197,40.1406 24.2887,39.9926 C24.1387,39.8216 23.8677,39.7966 23.6597,39.8896 C23.4517,39.9816 23.3017,40.1696 23.1957,40.3706 C22.9447,40.8446 22.9057,41.4026 22.9477,41.9356 C23.0347,43.0296 23.5177,44.1746 24.4887,44.6856 C27.9537,46.5146 30.0567,41.2366 30.9087,38.8186 C31.0577,38.3956 31.1987,37.9716 31.3387,37.5456 C31.4437,37.2276 31.5407,36.9096 31.6337,36.5866 C31.6567,36.5076 31.6997,36.3506 31.8087,36.3626 C32.0377,36.3866 32.2357,36.4896 32.4547,36.5506 C33.0177,36.7076 33.6137,36.8586 34.1997,36.8806 C34.3947,36.8876 34.5937,36.8896 34.7897,36.8816 C34.8617,36.8796 34.9317,36.8756 34.9997,36.8706 C35.8977,36.8006 36.7687,36.5786 37.5687,36.0826 C39.1017,35.1316 40.0577,33.4086 40.4057,31.6716 C40.6337,30.5296 40.6337,29.3256 40.3197,28.2096 C40.2417,27.9306 40.1427,27.6566 40.0237,27.3906 Z M58.5177,7.4996 C58.7757,3.8726 61.8087,0.9996 65.4997,0.9996 C69.1917,0.9996 72.2247,3.8726 72.4827,7.4996 L58.5177,7.4996 Z M57.4997,7.9996 L57.4997,62.9996 C57.4997,66.8596 54.3597,69.9996 50.4997,69.9996 C46.6407,69.9996 43.4997,66.8596 43.4997,62.9996 C43.4997,59.1396 46.6407,55.9996 50.4997,55.9996 C50.7767,55.9996 50.9997,55.7766 50.9997,55.4996 C50.9997,55.2236 50.7767,54.9996 50.4997,54.9996 L8.4997,54.9996 L8.4997,7.9996 C8.4997,4.1406 11.6407,0.9996 15.4997,0.9996 L61.6357,0.9996 C59.1727,2.3656 57.4997,4.9906 57.4997,7.9996 Z M7.9997,69.9996 C4.1407,69.9996 0.9997,66.8596 0.9997,62.9996 C0.9997,59.1396 4.1407,55.9996 7.9997,55.9996 L46.6297,55.9996 C44.1687,57.3656 42.4997,59.9916 42.4997,62.9996 C42.4997,66.0086 44.1687,68.6346 46.6297,69.9996 L7.9997,69.9996 Z M65.4997,-0.0004 L15.4997,-0.0004 C11.0887,-0.0004 7.4997,3.5886 7.4997,7.9996 L7.4997,55.0256 C3.3227,55.2856 -0.0003,58.7576 -0.0003,62.9996 C-0.0003,67.4106 3.5887,70.9996 7.9997,70.9996 L50.4997,70.9996 C54.9107,70.9996 58.4997,67.4106 58.4997,62.9996 L58.4997,8.4996 L72.9997,8.4996 C73.2767,8.4996 73.4997,8.2766 73.4997,7.9996 C73.4997,3.5886 69.9107,-0.0004 65.4997,-0.0004 Z" id="Fill-1" fill="#000000" mask="url(#mask-2)"></path>
            </g>
        </g>
    </g>
</svg>