<?xml version="1.0" encoding="UTF-8"?>
<svg width="86px" height="71px" viewBox="0 0 86 71" version="1.1" xmlns="http://www.w3.org/2000/svg" xmlns:xlink="http://www.w3.org/1999/xlink">
    <!-- Generator: Sketch 55.2 (78181) - https://sketchapp.com -->
    <title>Group 4</title>
    <desc>Created with Sketch.</desc>
    <g id="r2" stroke="none" stroke-width="1" fill="none" fill-rule="evenodd">
        <g id="Group-4" transform="translate(0.513072, 1.316958)" stroke-width="1.03034873">
            <g id="Group-3">
                <polygon id="Stroke-1" stroke="#010202" points="-3.41060513e-13 69 84.4244578 69 84.4244578 0 -3.41060513e-13 0"></polygon>
                <g id="Group-2" transform="translate(12.538012, 3.683042)">
                    <polygon id="Stroke-3" stroke="#010202" points="0 61.2769194 59.7048193 61.2769194 59.7048193 0.276919355 0 0.276919355"></polygon>
                    <g id="Group-30" transform="translate(10.503133, 12.044823)">
                        <path d="M33.5273795,18.5507565 C33.5273795,26.31195 27.1861747,32.603821 19.3641265,32.603821 C11.5410542,32.603821 5.20087349,26.31195 5.20087349,18.5507565 C5.20087349,10.7895629 11.5410542,4.49769194 19.3641265,4.49769194 C27.1861747,4.49769194 33.5273795,10.7895629 33.5273795,18.5507565 Z" id="Stroke-18" stroke="#010202"></path>
                        <path d="M19.349994,0.326380645 L19.349994,7.05721935" id="Stroke-20" stroke="#231F20"></path>
                        <path d="M19.349994,30.698071 L19.349994,37.1819903" id="Stroke-22" stroke="#231F20"></path>
                        <path d="M0.163240964,18.5507565 L7.38721687,18.5507565" id="Stroke-24" stroke="#231F20"></path>
                        <path d="M30.8970904,18.9084339 L38.1773916,18.9084339" id="Stroke-26" stroke="#231F20"></path>
                        <polygon id="Stroke-28" stroke="#231F20" points="27.138759 18.8891274 21.5441205 22.0939984 15.9494819 25.2988694 15.9494819 18.8891274 15.9494819 12.4793855 21.5441205 15.6842565"></polygon>
                    </g>
                </g>
                <polygon id="Stroke-4" stroke="#231F20" points="4.48692771 10.6830419 8.49012048 10.6830419 8.49012048 3.68304194 4.48692771 3.68304194"></polygon>
                <polygon id="Stroke-4-Copy-6" stroke="#231F20" points="76.4869277 10.6830419 80.4901205 10.6830419 80.4901205 3.68304194 76.4869277 3.68304194"></polygon>
                <polygon id="Stroke-4-Copy" stroke="#231F20" points="4.48692771 21.1114065 8.49012048 21.1114065 8.49012048 14.1114065 4.48692771 14.1114065"></polygon>
                <polygon id="Stroke-4-Copy-7" stroke="#231F20" points="76.4869277 21.1114065 80.4901205 21.1114065 80.4901205 14.1114065 76.4869277 14.1114065"></polygon>
                <polygon id="Stroke-4-Copy-2" stroke="#231F20" points="4.48692771 32.1114065 8.49012048 32.1114065 8.49012048 25.1114065 4.48692771 25.1114065"></polygon>
                <polygon id="Stroke-4-Copy-8" stroke="#231F20" points="76.4869277 32.1114065 80.4901205 32.1114065 80.4901205 25.1114065 76.4869277 25.1114065"></polygon>
                <polygon id="Stroke-4-Copy-3" stroke="#231F20" points="4.48692771 43.1114065 8.49012048 43.1114065 8.49012048 36.1114065 4.48692771 36.1114065"></polygon>
                <polygon id="Stroke-4-Copy-9" stroke="#231F20" points="76.4869277 43.1114065 80.4901205 43.1114065 80.4901205 36.1114065 76.4869277 36.1114065"></polygon>
                <polygon id="Stroke-4-Copy-4" stroke="#231F20" points="4.48692771 54.1114065 8.49012048 54.1114065 8.49012048 47.1114065 4.48692771 47.1114065"></polygon>
                <polygon id="Stroke-4-Copy-10" stroke="#231F20" points="76.4869277 54.1114065 80.4901205 54.1114065 80.4901205 47.1114065 76.4869277 47.1114065"></polygon>
                <polygon id="Stroke-4-Copy-5" stroke="#231F20" points="4.48692771 65.1114065 8.49012048 65.1114065 8.49012048 58.1114065 4.48692771 58.1114065"></polygon>
                <polygon id="Stroke-4-Copy-11" stroke="#231F20" points="76.4869277 65.1114065 80.4901205 65.1114065 80.4901205 58.1114065 76.4869277 58.1114065"></polygon>
            </g>
        </g>
    </g>
</svg>