<?xml version="1.0" encoding="utf-8"?>
<!-- Generator: Adobe Illustrator 22.0.1, SVG Export Plug-In . SVG Version: 6.00 Build 0)  -->
<svg version="1.1" id="Layer_1" xmlns="http://www.w3.org/2000/svg" xmlns:xlink="http://www.w3.org/1999/xlink" x="0px" y="0px"
	 viewBox="0 0 29 19" style="enable-background:new 0 0 29 19;" xml:space="preserve">
<style type="text/css">
	.st0{fill:#FBF8EC;}
</style>
<title>D_VidControl_Sound-Hover</title>
<desc>Created with Sketch.</desc>
<g id="Production-Detail">
	<g id="D_VideoPlayerControls-Hover" transform="translate(-81.000000, -23.000000)">
		<g id="D_VidControl_Sound-Hover" transform="translate(81.000000, 23.000000)">
			<path id="Combined-Shape" class="st0" d="M5.6,6L12,2v15l-6.4-4H0V6H5.6z"/>
			<path id="Combined-Shape_1_" class="st0" d="M19.8,13.6L19,12.9c1.9-1.9,1.9-4.9,0-6.8l0.8-0.8C22,7.6,22,11.4,19.8,13.6z
				 M22.4,16.3l-0.8-0.8c3.3-3.3,3.3-8.8,0-12.1l0.8-0.8C26.2,6.4,26.2,12.6,22.4,16.3z M25,18.2l-0.7-0.7c4.4-4.4,4.4-11.6,0-16.1
				L25,0.8C29.8,5.6,29.8,13.4,25,18.2z"/>
		</g>
	</g>
</g>
</svg>
