<?xml version="1.0" encoding="UTF-8"?>
<svg width="27px" height="49px" viewBox="0 0 27 49" version="1.1" xmlns="http://www.w3.org/2000/svg" xmlns:xlink="http://www.w3.org/1999/xlink">
    <!-- Generator: Sketch 51.1 (57501) - http://www.bohemiancoding.com/sketch -->
    <defs></defs>
    <g id="Homepage" stroke="none" stroke-width="1" fill="none" fill-rule="evenodd">
        <g id="D_Homepage-2" transform="translate(-35.000000, -30.000000)" fill="#FBF8EC">
            <g id="Bristol-B-Offwhite" transform="translate(35.000000, 30.000000)">
                <path d="M24.6472852,26.8566798 C24.6133993,27.1649944 24.5699094,27.4749607 24.5095671,27.7869457 C24.476406,27.9583539 24.4381711,28.1271929 24.3972181,28.2947472 C24.3861644,28.342279 24.3792785,28.3698071 24.3792785,28.3698071 L24.3776477,28.3694401 C24.048755,29.6722528 23.4866477,30.8511891 22.7627215,31.7935674 C20.8806946,33.9585599 18.5088624,34.1365749 16.7268624,33.8447772 C15.5571644,33.5773876 14.6186879,33.0675674 14.1716477,32.7928371 C15.1606812,28.3481517 15.7956342,23.8489607 16.3035604,19.3895936 L16.3039228,19.3895936 C16.3039228,19.3895936 18.2075134,18.4330843 19.899453,18.6320206 C21.2632248,18.8115037 22.464453,19.8450918 22.464453,19.8450918 C23.7533859,21.0049419 24.2257953,22.2167285 24.2257953,22.2167285 C24.8828557,23.633324 24.8121846,25.5426723 24.6472852,26.8566798 M16.956453,13.2583539 C17.1215336,11.6452079 17.2922315,9.97700562 17.4725336,8.3420206 C17.688896,6.38055243 18.126151,4.74354869 18.7370034,3.60810674 C19.5769027,2.046897 20.5063188,1.86447753 21.222453,1.87989326 L21.2541644,1.88081086 C22.6931376,1.92577341 23.5265134,3.96120037 23.7358087,5.31815169 C23.9188289,6.50663109 23.7999564,7.90303933 23.4351846,9.20071348 L23.4357282,9.20052996 C23.2576007,10.0535337 22.8736208,10.9114925 22.4970705,11.6079532 C21.427943,13.8819569 19.4341107,15.2957996 19.4341107,15.2957996 C18.8977349,15.7272566 18.4546812,16.0473165 18.1134664,16.2780019 C17.6385201,16.6210019 16.9778356,16.9907959 16.5432987,17.2225824 C16.6860906,15.8951779 16.8216342,14.5727285 16.956453,13.2583539 M26.5119161,22.814088 C26.3919564,22.3826311 26.2419161,21.9596161 26.059802,21.548897 C25.0205738,19.2064401 22.9894128,17.5782453 20.5302383,17.0308034 C20.8910235,16.7406573 21.3587215,16.3471891 21.8186275,15.9118783 C21.8206208,15.9098596 21.8227953,15.9080243 21.8244262,15.9063727 C21.9291644,15.807088 22.0337215,15.7063352 22.1359228,15.6031966 C22.9093188,14.8788408 23.8191644,13.7999232 24.6510906,12.2310056 C25.7213054,10.212279 26.2372047,7.54627528 25.8780503,5.25300187 C25.5018624,2.85090075 23.9858758,0.0865299625 21.3146879,0.00266104869 C21.2974732,0.00211048689 21.2795336,0.00174344569 21.2621376,0.00137640449 C16.9914262,-0.0916685393 15.6899899,4.89770599 15.3078221,8.33321161 C14.3126275,17.277088 13.7066678,26.2646423 11.3522315,34.9851742 C10.7085805,37.3694738 10.0683725,39.8385599 9.04092282,42.1166011 C8.21298322,43.9525412 7.04781544,46.3937322 4.90992282,46.8954775 C3.92088926,47.1278146 2.83672148,46.9316311 2.09050671,46.2114963 C0.621634228,44.7939831 2.01077517,43.4449232 2.24435235,41.8758221 C2.28929195,41.5746648 2.26700336,41.238088 2.06839933,41.0094213 C1.83917114,40.7458858 1.42583557,40.7069794 1.10908389,40.8504925 C0.792513423,40.9938221 0.562016779,41.2841517 0.399654362,41.5948521 C0.0178489933,42.325264 -0.0421308725,43.1867097 0.0223791946,44.0109007 C0.154479866,45.6996573 0.89235906,47.4675112 2.37192282,48.2579345 C7.6566745,51.0812154 10.8618826,42.9306985 12.1613255,39.1969719 C12.3883792,38.5447397 12.6032919,37.88847 12.8172987,37.2320169 C12.977849,36.7399981 13.1260772,36.24853 13.267057,35.749721 C13.3014866,35.6278633 13.3674463,35.3859831 13.5334329,35.4037846 C13.8844329,35.4417734 14.185057,35.5999682 14.5197483,35.6948483 C15.3768624,35.9378296 16.2854396,36.1696161 17.1786141,36.2035674 C17.477245,36.2147622 17.780406,36.2173315 18.0806678,36.2061367 C18.1884866,36.2022828 18.2953993,36.1965936 18.4006812,36.1887022 C19.7682584,36.0804251 21.0976007,35.7381592 22.3162248,34.9728783 C24.6547148,33.5039794 26.1116275,30.8420131 26.6420235,28.1602266 C26.9906678,26.3969607 26.9912114,24.5371629 26.5119161,22.814088" id="Bristol-B"></path>
            </g>
        </g>
    </g>
</svg>
